<?xml version="1.0" encoding="utf-8"?>
<!-- Generator: Adobe Illustrator 16.0.0, SVG Export Plug-In . SVG Version: 6.00 Build 0)  -->
<!DOCTYPE svg PUBLIC "-//W3C//DTD SVG 1.1//EN" "http://www.w3.org/Graphics/SVG/1.1/DTD/svg11.dtd">
<svg version="1.1" id="Layer_1" xmlns="http://www.w3.org/2000/svg" xmlns:xlink="http://www.w3.org/1999/xlink" x="0px" y="0px"
	 width="104.254px" height="168.023px" viewBox="0 0 104.254 168.023" enable-background="new 0 0 104.254 168.023"
	 xml:space="preserve">
<g>
	<polygon fill="#FFFFFF" points="44.867,143.617 30.207,131.97 32.053,142.289 	"/>
	<polygon fill="#FFFFFF" points="70.051,135.032 59.562,121.782 58.725,121.78 58.725,139.398 	"/>
	<polygon fill="#FFFFFF" points="56.725,140.117 56.725,121.776 28.041,121.721 29.555,129.257 47.617,143.805 	"/>
	<path fill="#FFFFFF" d="M28.255,131.404c-1.782,1.389-5.311,4.129-8.859,6.812c-3.931,2.975-6.455,4.816-8.112,5.94l7.026,2.388
		l11.932-4.033L28.255,131.404z"/>
	<path fill="#FFFFFF" d="M72.315,134.656l15.543,5.276c-0.221-4.673-0.709-11.993-1.152-18.1l-24.459-0.047L72.315,134.656z"/>
	<polygon fill="#FFFFFF" points="100.516,133.109 103.952,121.868 91.438,121.844 	"/>
	<path fill="#FFFFFF" d="M89.094,121.828h-0.561c0.682,10,1.018,14.802,1.151,18.193l9.812-3.58l0.377-1.231L89.094,121.828z"/>
	<polygon fill="#FFFFFF" points="46.393,145.606 31.381,144.05 20.776,147.635 21.358,153.448 37.301,161.517 	"/>
	<polygon fill="#FFFFFF" points="47.946,146.561 38.321,163.403 38.564,165.594 61.036,168.023 62.069,167.236 	"/>
	<polygon fill="#FFFFFF" points="71.788,136.401 61.263,140.548 85.758,147.842 86.692,141.461 	"/>
	<polygon fill="#FFFFFF" points="85.27,149.598 58.516,141.631 49.273,145.273 63.522,166.133 	"/>
	<path fill="#FFFFFF" d="M27.893,129.376l-1.37-7.659l-26.218-0.052l9.782,21.102C13.641,140.35,21.085,134.709,27.893,129.376z"/>
</g>
<path fill="#FFFFFF" d="M94.741,48.787l-2.832,4.656c-2.834-13.159-7.896-15.183-7.896-15.183l-2.633,3.645
	c-2.43-18.22-10.525-22.876-10.525-22.876l-3.441,3.645L68.424,0c-17.41,10.122-23.281,21.661-23.281,21.661l-2.023-4.857
	c-13.159,9.918-18.827,23.482-18.827,23.482l-2.227-2.834C9.312,52.026,8.705,60.327,8.705,60.327l-1.417-1.62
	c0,0-7.288,8.3-7.288,22.875l104.254,0.201C104.254,61.823,94.741,48.787,94.741,48.787z"/>
<g>
	<path fill="#FFFFFF" d="M30.168,85.228h8.92v2.371H32.83v3.167h5.772v2.371H32.83v3.322h6.355v2.371h-9.018L30.168,85.228
		L30.168,85.228z"/>
	<path fill="#FFFFFF" d="M41.673,85.363c0.298-0.052,0.618-0.1,0.962-0.146c0.343-0.046,0.687-0.081,1.03-0.105
		c0.343-0.026,0.677-0.046,1.001-0.06s0.622-0.02,0.894-0.02c0.635,0,1.26,0.062,1.875,0.185c0.615,0.123,1.166,0.333,1.652,0.633
		c0.486,0.298,0.875,0.698,1.166,1.204c0.292,0.506,0.437,1.134,0.437,1.886c0,0.557-0.055,1.039-0.165,1.446
		c-0.11,0.408-0.262,0.769-0.457,1.079c-0.194,0.312-0.431,0.58-0.709,0.808c-0.279,0.227-0.58,0.431-0.904,0.61l3.284,5.947h-3.07
		l-2.74-5.325h-1.594v5.325h-2.662V85.363z M45.754,87.404c-0.272,0-0.541,0.006-0.807,0.019c-0.266,0.015-0.47,0.039-0.612,0.078
		v3.945h1.05c0.738,0,1.341-0.168,1.807-0.506c0.466-0.336,0.7-0.895,0.7-1.671c0-0.583-0.182-1.04-0.544-1.37
		C46.986,87.569,46.454,87.404,45.754,87.404z"/>
	<path fill="#FFFFFF" d="M53.176,96.46h3.441v-8.86h-3.441v-2.371h9.562v2.371H59.28v8.86h3.459v2.371h-9.562V96.46z"/>
	<path fill="#FFFFFF" d="M68.762,93.156h-1.379v5.675h-2.662V85.228h2.662v5.558h1.379l3.111-5.558h3.03l-3.827,6.567l4.313,7.035
		h-3.285L68.762,93.156z"/>
	<path fill="#FFFFFF" d="M10.016,107.83c0,0.337-0.042,0.673-0.126,1.01s-0.224,0.646-0.418,0.925
		c-0.194,0.277-0.447,0.523-0.758,0.737s-0.687,0.372-1.127,0.477v0.117c0.389,0.063,0.758,0.175,1.107,0.329
		c0.35,0.155,0.654,0.369,0.914,0.643c0.259,0.271,0.463,0.603,0.612,0.991c0.148,0.389,0.223,0.849,0.223,1.38
		c0,0.699-0.149,1.305-0.447,1.815c-0.298,0.514-0.697,0.931-1.195,1.254c-0.499,0.324-1.066,0.563-1.7,0.72
		c-0.635,0.154-1.29,0.232-1.963,0.232c-0.221,0-0.502,0-0.846,0c-0.344,0-0.712-0.01-1.107-0.028
		c-0.396-0.021-0.797-0.05-1.205-0.088s-0.781-0.098-1.117-0.176v-13.409c0.246-0.038,0.527-0.076,0.845-0.115
		c0.317-0.039,0.657-0.071,1.021-0.099c0.362-0.024,0.735-0.045,1.117-0.058c0.382-0.013,0.761-0.021,1.137-0.021
		c0.635,0,1.254,0.05,1.856,0.146c0.603,0.098,1.14,0.27,1.613,0.515c0.473,0.247,0.852,0.59,1.137,1.03
		C9.873,106.599,10.016,107.156,10.016,107.83z M4.261,110.375c0.185,0,0.399-0.006,0.644-0.019
		c0.245-0.014,0.446-0.032,0.605-0.059c0.502-0.153,0.935-0.385,1.298-0.691c0.363-0.309,0.545-0.712,0.545-1.212
		c0-0.333-0.066-0.608-0.198-0.827c-0.132-0.218-0.307-0.392-0.525-0.52c-0.218-0.128-0.466-0.218-0.743-0.27
		c-0.278-0.051-0.568-0.077-0.872-0.077c-0.344,0-0.661,0.007-0.952,0.021c-0.291,0.013-0.516,0.031-0.674,0.058v3.596H4.261z
		 M5.118,116.225c0.324,0,0.638-0.038,0.942-0.115c0.304-0.076,0.573-0.195,0.807-0.355c0.234-0.159,0.421-0.361,0.563-0.605
		c0.143-0.243,0.214-0.532,0.214-0.865c0-0.424-0.084-0.757-0.252-1.001c-0.168-0.243-0.389-0.433-0.661-0.567
		s-0.577-0.221-0.913-0.26c-0.337-0.038-0.674-0.058-1.011-0.058H3.389v3.713c0.064,0.026,0.168,0.045,0.311,0.058
		c0.142,0.014,0.294,0.022,0.457,0.029c0.162,0.007,0.33,0.013,0.505,0.02C4.836,116.222,4.988,116.225,5.118,116.225z"/>
	<path fill="#FFFFFF" d="M13.105,104.662h8.123v8.667c0,0.739-0.094,1.432-0.282,2.08c-0.188,0.647-0.528,1.224-1.02,1.729
		c-0.311,0.311-0.645,0.557-1.001,0.737c-0.356,0.183-0.703,0.317-1.04,0.408c-0.337,0.091-0.655,0.148-0.953,0.175
		c-0.298,0.025-0.544,0.039-0.738,0.039c-0.622,0-1.224-0.067-1.807-0.204c-0.583-0.136-1.167-0.379-1.75-0.729l0.953-2.139
		c0.492,0.285,0.917,0.474,1.273,0.563c0.356,0.091,0.768,0.136,1.234,0.136c0.285,0,0.593-0.055,0.923-0.165
		c0.33-0.109,0.618-0.295,0.865-0.554c0.453-0.492,0.68-1.179,0.68-2.061v-6.315h-5.461L13.105,104.662L13.105,104.662z"/>
	<path fill="#FFFFFF" d="M23.677,111.464c0-1.102,0.104-2.093,0.311-2.974c0.207-0.881,0.524-1.623,0.952-2.225
		c0.427-0.604,0.962-1.066,1.603-1.391c0.642-0.324,1.396-0.485,2.264-0.485c0.933,0,1.723,0.175,2.371,0.523
		c0.647,0.352,1.176,0.836,1.584,1.458c0.408,0.622,0.706,1.367,0.894,2.235c0.188,0.868,0.282,1.819,0.282,2.855
		c0,2.217-0.425,3.948-1.273,5.198c-0.849,1.251-2.135,1.876-3.858,1.876c-0.933,0-1.727-0.175-2.38-0.525
		c-0.655-0.35-1.186-0.835-1.594-1.456c-0.408-0.622-0.703-1.367-0.884-2.235C23.768,113.453,23.677,112.5,23.677,111.464z
		 M24.863,102.621c0-0.35,0.123-0.635,0.369-0.854c0.246-0.222,0.641-0.331,1.186-0.331c0.544,0,0.939,0.109,1.186,0.331
		c0.246,0.22,0.369,0.505,0.369,0.854c0,0.363-0.124,0.648-0.369,0.855c-0.247,0.207-0.642,0.311-1.186,0.311
		s-0.939-0.104-1.186-0.311S24.863,102.984,24.863,102.621z M26.476,111.464c0,0.66,0.029,1.276,0.087,1.847
		c0.059,0.569,0.168,1.065,0.331,1.486c0.162,0.421,0.395,0.755,0.7,1.001c0.304,0.246,0.709,0.369,1.214,0.369
		c0.454,0,0.829-0.094,1.127-0.282c0.298-0.188,0.537-0.476,0.719-0.863c0.182-0.389,0.308-0.878,0.379-1.468
		c0.071-0.59,0.107-1.285,0.107-2.09c0-0.635-0.022-1.236-0.068-1.808c-0.045-0.569-0.149-1.068-0.311-1.496
		c-0.162-0.428-0.398-0.768-0.709-1.021c-0.311-0.254-0.726-0.38-1.244-0.38c-0.907,0-1.522,0.396-1.846,1.187
		C26.638,108.736,26.476,109.909,26.476,111.464z M29.644,102.621c0-0.35,0.123-0.635,0.369-0.854
		c0.246-0.222,0.641-0.331,1.186-0.331c0.544,0,0.939,0.109,1.186,0.331c0.246,0.22,0.369,0.505,0.369,0.854
		c0,0.363-0.124,0.648-0.369,0.855c-0.247,0.207-0.642,0.311-1.186,0.311c-0.544,0-0.939-0.104-1.186-0.311
		C29.766,103.27,29.644,102.984,29.644,102.621z"/>
	<path fill="#FFFFFF" d="M35.843,104.798c0.298-0.052,0.618-0.101,0.962-0.146c0.343-0.046,0.687-0.081,1.03-0.107
		c0.343-0.024,0.677-0.045,1.001-0.058c0.324-0.013,0.622-0.021,0.894-0.021c0.635,0,1.26,0.062,1.875,0.186
		c0.615,0.123,1.166,0.334,1.652,0.632c0.486,0.298,0.875,0.699,1.166,1.204c0.292,0.506,0.437,1.134,0.437,1.886
		c0,0.558-0.055,1.039-0.165,1.447c-0.11,0.408-0.262,0.768-0.457,1.079c-0.194,0.311-0.431,0.58-0.709,0.807
		c-0.279,0.228-0.58,0.432-0.904,0.611l3.284,5.947h-3.07l-2.74-5.325h-1.594v5.325h-2.662V104.798z M39.924,106.839
		c-0.272,0-0.541,0.007-0.807,0.02c-0.266,0.014-0.47,0.039-0.612,0.078v3.944h1.05c0.738,0,1.341-0.168,1.807-0.506
		c0.466-0.336,0.7-0.894,0.7-1.671c0-0.583-0.182-1.04-0.544-1.37S40.624,106.839,39.924,106.839z"/>
	<path fill="#FFFFFF" d="M51.273,112.591h-1.38v5.676H47.23v-13.604h2.663v5.559h1.38l3.108-5.559h3.033l-3.83,6.568l4.314,7.035
		h-3.283L51.273,112.591z"/>
	<path fill="#FFFFFF" d="M59.221,113.815h2.138v1.924c0.039,0.013,0.077,0.026,0.116,0.039c0.299,0.13,0.625,0.236,0.982,0.32
		c0.354,0.085,0.733,0.126,1.137,0.126c0.725,0,1.289-0.146,1.689-0.438c0.401-0.292,0.604-0.684,0.604-1.176
		c0-0.44-0.166-0.797-0.496-1.069c-0.33-0.271-0.738-0.512-1.225-0.719c-0.485-0.207-1.018-0.415-1.594-0.622
		s-1.107-0.47-1.594-0.787c-0.486-0.316-0.895-0.716-1.225-1.195c-0.33-0.479-0.496-1.101-0.496-1.864
		c0-0.583,0.113-1.117,0.341-1.604c0.228-0.484,0.545-0.902,0.952-1.254c0.408-0.35,0.896-0.621,1.468-0.814
		c0.571-0.194,1.205-0.292,1.903-0.292c0.791,0,1.568,0.07,2.332,0.214c0.765,0.143,1.373,0.337,1.826,0.583v3.944h-2.137v-2.156
		c-0.039,0-0.078-0.008-0.117-0.021c-0.285-0.078-0.593-0.139-0.923-0.185c-0.331-0.045-0.657-0.068-0.981-0.068
		c-0.621,0-1.11,0.124-1.467,0.369c-0.356,0.247-0.535,0.577-0.535,0.991c0,0.428,0.166,0.776,0.496,1.05
		c0.33,0.272,0.738,0.519,1.226,0.738c0.485,0.221,1.017,0.439,1.593,0.66c0.577,0.222,1.107,0.489,1.596,0.808
		c0.483,0.316,0.893,0.716,1.223,1.194c0.332,0.479,0.496,1.081,0.496,1.808c0,0.7-0.129,1.312-0.389,1.837
		c-0.261,0.525-0.621,0.965-1.089,1.321c-0.467,0.355-1.018,0.622-1.651,0.797c-0.635,0.175-1.321,0.263-2.061,0.263
		c-0.492,0-0.949-0.039-1.369-0.117c-0.423-0.077-0.812-0.175-1.166-0.291c-0.357-0.116-0.672-0.239-0.943-0.369
		s-0.492-0.239-0.66-0.33V113.815z"/>
	<path fill="#FFFFFF" d="M71.913,116.128h2.215V106.8h-1.865v2.353h-2.139v-4.489h10.65v4.489h-2.138V106.8H76.79v9.328h2.196v2.139
		h-7.073V116.128z"/>
	<path fill="#FFFFFF" d="M82.639,104.662h8.92v2.371h-6.258v3.167h5.771v2.371h-5.771v3.323h6.354v2.371h-9.018L82.639,104.662
		L82.639,104.662z"/>
	<path fill="#FFFFFF" d="M96.536,110.22h-0.099l0.116,1.612v6.434h-2.526v-13.604h2.332l4.703,8.317h0.099l-0.176-1.633v-6.686
		h2.526v13.604h-2.332L96.536,110.22z"/>
</g>
</svg>
